<svg width="512" height="512" viewBox="0 0 512 512" fill="none" xmlns="http://www.w3.org/2000/svg">
<circle cx="256" cy="256" r="256" fill="#A3A3A3"/>
<path d="M315.904 164.68L285.952 138.056C281.856 144.2 273.664 152.648 266.24 159.816C249.088 176.712 213.76 205.128 193.792 221.512C168.192 242.76 166.144 256.584 191.488 278.344C215.04 298.056 252.672 330.312 268.032 346.44C275.712 354.12 283.392 362.056 290.56 370.248L320.256 342.6C294.144 317.256 245.504 279.112 226.304 262.984C212.48 250.952 212.224 247.88 225.792 236.36C242.944 221.512 276.736 195.4 293.376 182.088C299.264 177.224 307.712 170.568 315.904 164.68Z" fill="black"/>
</svg>
